<svg width="95" height="50" viewBox="0 0 95 50" fill="none" xmlns="http://www.w3.org/2000/svg">
<g clip-path="url(#clip0_13044_5127)">
<path fill-rule="evenodd" clip-rule="evenodd" d="M1.77889 15.1101C3.91862 9.98316 7.67263 5.74129 12.3812 3.06655C13.0483 2.68772 13.0039 2.66988 13.302 3.2016L13.6932 4.0459C14.0383 4.79082 13.9971 4.71777 13.1743 5.20107C9.04312 7.62524 5.74457 11.3855 3.83297 15.9119C3.48211 16.7426 3.58836 16.7333 2.81005 16.4267L1.9642 16.0928C1.44039 15.8864 1.47086 15.8499 1.77971 15.1101H1.77889Z" fill="#00151E"/>
<path fill-rule="evenodd" clip-rule="evenodd" d="M0.0764562 21.2962C0.251885 20.0756 0.512145 18.8839 0.852296 17.7279C1.07879 16.9575 0.973367 17.0492 1.66602 17.2404L2.4954 17.5674C3.16417 17.8315 3.12299 17.7729 2.89649 18.5688C2.62882 19.5099 2.41798 20.4757 2.2689 21.4635C2.13054 22.38 2.18984 22.4072 1.46424 22.3359L0.628274 22.2535C-0.101443 22.1821 -0.0544977 22.2017 0.0756326 21.2962H0.0764562Z" fill="#2AADE1"/>
<path fill-rule="evenodd" clip-rule="evenodd" d="M7.37448 43.1307C3.53234 39.3688 0.882791 34.3225 0.074831 28.6588C-0.0264729 27.9495 -0.0981269 27.9886 0.535228 27.9223L1.5425 27.8162C2.17092 27.7499 2.1528 27.7346 2.27304 28.5271C3.04559 33.6269 5.46041 38.1652 8.94263 41.5492C9.53398 42.1242 9.49115 42.0996 9.03323 42.6177L8.51353 43.2063C7.93288 43.8638 8.04737 43.7899 7.3753 43.1324L7.37448 43.1307Z" fill="#00151E"/>
<path fill-rule="evenodd" clip-rule="evenodd" d="M12.3878 46.9122C11.3385 46.3159 10.3361 45.6424 9.38817 44.8983C8.86353 44.4863 8.86848 44.5551 9.2811 44.088L9.94164 43.3405C10.4605 42.8054 10.3139 42.7918 10.8789 43.2267C11.719 43.8739 12.606 44.4609 13.5326 44.9815C14.1758 45.3425 14.1503 45.2686 13.7994 45.8955L13.3423 46.7126C12.9668 47.3836 13.0672 47.2987 12.3869 46.9122H12.3878Z" fill="#2AADE1"/>
<path fill-rule="evenodd" clip-rule="evenodd" d="M35.0806 47.2766C31.7755 49.0179 28.0322 49.9998 24.0665 49.9998C22.3822 49.9998 20.7383 49.8223 19.1512 49.485C18.3795 49.3211 18.4462 49.3755 18.6274 48.6441L18.8037 47.9315C19.0647 46.925 18.984 47.1552 19.9608 47.3446C21.291 47.6028 22.6631 47.7387 24.0665 47.7387C27.487 47.7387 30.7254 46.9352 33.6138 45.5022C34.4786 45.0733 34.4094 44.9068 34.8533 45.6951L35.2519 46.4034C35.5773 46.981 35.6885 46.9564 35.0806 47.2766Z" fill="#00151E"/>
<path fill-rule="evenodd" clip-rule="evenodd" d="M5.47028 16.6229C7.24352 12.4379 10.3057 8.96642 14.1404 6.74356C14.7688 6.37917 14.74 6.40635 15.0044 6.87861L15.3832 7.69658C15.7613 8.512 15.7596 8.36505 15.006 8.81438C11.6737 10.8037 9.01345 13.8564 7.46177 17.5224C7.17186 18.207 7.24763 18.1772 6.60357 17.9233L5.72149 17.575C5.12107 17.338 5.15649 17.3644 5.47111 16.622L5.47028 16.6229Z" fill="#00151E"/>
<path fill-rule="evenodd" clip-rule="evenodd" d="M4.01083 21.8407C4.14507 20.9199 4.33862 20.0187 4.58571 19.1422C4.78584 18.4304 4.73807 18.5213 5.32201 18.6826L6.24281 19.0462C6.85969 19.29 6.83004 19.2016 6.64555 19.8701C6.44624 20.5912 6.28811 21.331 6.17445 22.0853C6.07067 22.7708 6.11927 22.7929 5.57486 22.7393L4.39792 22.6238C3.84363 22.5695 3.9087 22.5482 4.01165 21.8415L4.01083 21.8407Z" fill="#2AADE1"/>
<path fill-rule="evenodd" clip-rule="evenodd" d="M4.67797 31.1483C4.38395 30.1622 4.15828 29.1455 4.00756 28.1033C3.9219 27.5129 3.89225 27.5673 4.42677 27.5104L5.47111 27.4C6.13741 27.3295 6.07729 27.2462 6.17612 27.9003C6.29637 28.6927 6.46603 29.4691 6.68017 30.2259C6.8663 30.8816 6.87948 30.8731 6.40838 31.0897L5.47358 31.5212C4.85835 31.8049 4.89458 31.8729 4.6788 31.1475L4.67797 31.1483Z" fill="#2AADE1"/>
<path fill-rule="evenodd" clip-rule="evenodd" d="M9.94162 39.9999C9.32886 39.3866 8.75398 38.7343 8.22028 38.0463C7.78294 37.4823 7.75741 37.5562 8.28123 37.1722L9.13201 36.5488C9.641 36.1759 9.54629 36.175 9.92103 36.6685C10.379 37.2708 10.8879 37.8373 11.4274 38.3716C11.9208 38.8591 11.9636 38.8039 11.56 39.2609L10.8616 40.0525C10.393 40.5825 10.4811 40.5401 9.94162 39.9999Z" fill="#2AADE1"/>
<path fill-rule="evenodd" clip-rule="evenodd" d="M22.5956 45.853C21.7942 45.7936 21.0052 45.6866 20.2326 45.5337C19.4222 45.374 19.4601 45.4606 19.605 44.7021L19.7673 43.8536C19.9032 43.1409 19.8398 43.1715 20.5777 43.3201C21.2984 43.4654 22.0339 43.5665 22.7825 43.6208C23.5724 43.6777 23.5748 43.6106 23.4777 44.325L23.3591 45.1973C23.2528 45.9787 23.3607 45.9099 22.5956 45.8539V45.853Z" fill="#2AADE1"/>
<path fill-rule="evenodd" clip-rule="evenodd" d="M32.8726 43.8374C32.1758 44.184 31.4568 44.4915 30.7188 44.7556C30.0361 45.0002 30.0731 45.1115 29.8326 44.4796L29.4422 43.5393C29.1474 42.8292 29.1408 42.9371 29.8409 42.695C30.5632 42.4444 31.2657 42.148 31.9435 41.8099C32.6131 41.4761 32.5234 41.3733 32.8503 42.0783L33.1995 42.8309C33.5735 43.6378 33.6072 43.4713 32.8726 43.8366V43.8374Z" fill="#2AADE1"/>
<path fill-rule="evenodd" clip-rule="evenodd" d="M9.2737 18.1611C10.6664 14.9767 13.0112 12.3062 15.9169 10.5565C16.5486 10.176 16.5239 10.159 16.7792 10.7102L17.1235 11.4534C17.4661 12.1933 17.4052 12.1126 16.6112 12.6222C14.301 14.1069 12.4364 16.261 11.2742 18.8211C10.9209 19.5991 11.0173 19.6968 10.365 19.4394L9.47301 19.0878C8.91543 18.8678 8.96238 18.8712 9.2737 18.1603V18.1611Z" fill="#00151E"/>
<path fill-rule="evenodd" clip-rule="evenodd" d="M8.08603 22.2773C8.17498 21.7099 8.29194 21.1518 8.43442 20.6048C8.60985 19.9338 8.52255 20.0145 9.11801 20.1793L10.0734 20.5564C10.6392 20.7798 10.547 20.7288 10.3864 21.3778C10.2892 21.7702 10.2076 22.1685 10.1426 22.5728C10.0363 23.2294 10.094 23.1836 9.48123 23.1233L8.47313 23.0239C7.94355 22.9721 7.97814 22.9653 8.08603 22.2773Z" fill="#2AADE1"/>
<path fill-rule="evenodd" clip-rule="evenodd" d="M8.53578 29.7383C8.34388 29.0902 8.18657 28.4243 8.08444 27.755C7.97902 27.0636 7.95843 27.1375 8.57614 27.0721L9.42775 26.982C10.094 26.9115 10.0347 26.7875 10.1665 27.5511C10.2374 27.9605 10.3247 28.364 10.4276 28.7615C10.5989 29.4224 10.664 29.4028 10.1492 29.6279L9.16666 30.0585C8.70297 30.2616 8.70627 30.321 8.53413 29.7392L8.53578 29.7383Z" fill="#2AADE1"/>
<path fill-rule="evenodd" clip-rule="evenodd" d="M15.6608 39.2626C12.9108 37.5358 10.6977 34.9884 9.34455 31.9485C9.06781 31.3267 9.0431 31.3955 9.60316 31.15L10.5116 30.7525C11.0428 30.5198 10.986 30.5121 11.2528 31.105C12.457 33.784 14.4279 36.0222 16.8756 37.5188C17.5551 37.9341 17.5996 37.9197 17.2899 38.4735L16.9358 39.1199C16.5034 39.892 16.5561 39.8249 15.6608 39.2626Z" fill="#00151E"/>
<path fill-rule="evenodd" clip-rule="evenodd" d="M26.8471 41.4404C26.3068 41.5373 25.7583 41.6061 25.2015 41.646C24.6958 41.6825 24.7831 41.6426 24.7691 41.144L24.737 40.0542C24.7213 39.52 24.662 39.5454 25.1924 39.5021C25.6627 39.4639 26.1264 39.4019 26.5827 39.317C27.1279 39.2159 27.0736 39.198 27.1452 39.7468L27.2811 40.7839C27.3602 41.3895 27.4376 41.336 26.8471 41.4413V41.4404Z" fill="#2AADE1"/>
<path fill-rule="evenodd" clip-rule="evenodd" d="M34.3592 37.8789C33.9622 38.217 33.5488 38.5355 33.1205 38.8336C32.5802 39.2099 32.656 39.1182 32.2746 38.6306L31.7772 37.9936C31.395 37.5043 31.3225 37.5009 31.9164 37.0907C32.2664 36.8486 32.6057 36.5904 32.9327 36.3186C33.4796 35.8625 33.3791 35.8565 33.8518 36.3441L34.4621 37.0295C34.8756 37.4942 34.8863 37.4313 34.3592 37.8798V37.8789Z" fill="#2AADE1"/>
<path fill-rule="evenodd" clip-rule="evenodd" d="M16.9193 15.0132C17.238 14.7695 17.5691 14.5418 17.9109 14.3312C18.3565 14.0568 18.284 14.0347 18.5162 14.4611L19.0096 15.5263C19.1982 15.934 19.2369 15.8652 18.8951 16.0767C18.6777 16.2117 18.4652 16.3544 18.2585 16.5048C17.9183 16.7528 17.976 16.7655 17.7009 16.4818L16.9003 15.618C16.5643 15.2715 16.5264 15.3122 16.9193 15.0115V15.0132Z" fill="#2AADE1"/>
<path fill-rule="evenodd" clip-rule="evenodd" d="M13.0804 19.9363C13.227 19.5983 13.3876 19.2687 13.5614 18.9476C13.8365 18.4389 13.783 18.4575 14.2079 18.765L15.1724 19.4624C15.4442 19.6586 15.4458 19.6093 15.2819 19.9092C15.1213 20.203 14.9747 20.5063 14.8421 20.8172C14.698 21.1561 14.7285 21.1297 14.4081 21.0032L13.3234 20.5751C12.8671 20.395 12.8572 20.4502 13.0796 19.9363H13.0804Z" fill="#2AADE1"/>
<path fill-rule="evenodd" clip-rule="evenodd" d="M15.3297 33.5096C13.7871 31.8278 12.695 29.7001 12.256 27.3345C12.1291 26.6516 12.1431 26.6958 12.6925 26.638L13.5392 26.5489C14.1618 26.4834 14.0778 26.4631 14.212 27.1264C14.5802 28.939 15.4063 30.5775 16.5593 31.9077C17.1177 32.5515 17.205 32.5965 16.7726 33.0425L16.2513 33.6319C15.8066 34.0906 15.8626 34.0915 15.3297 33.5096Z" fill="#00151E"/>
<path fill-rule="evenodd" clip-rule="evenodd" d="M17.985 35.69C17.663 35.4947 17.35 35.284 17.0469 35.0598C16.7027 34.8041 16.7298 34.8423 16.9975 34.54L17.7017 33.7432C18.116 33.316 17.9776 33.2735 18.424 33.5895C18.6241 33.7313 18.8094 33.8519 19.0046 33.9683C19.4272 34.2206 19.3983 34.1798 19.157 34.6105L18.6373 35.538C18.3927 35.9746 18.4487 35.972 17.9842 35.69H17.985Z" fill="#2AADE1"/>
<path fill-rule="evenodd" clip-rule="evenodd" d="M28.9909 36.3067C27.4878 37.0032 25.8216 37.3914 24.0665 37.3914C23.4455 37.3914 22.8361 37.3429 22.2406 37.2495C21.5372 37.1391 21.6113 37.1145 21.7102 36.5326L21.8444 35.7376C21.9474 35.1294 21.9367 35.1668 22.6384 35.2696C23.1046 35.3375 23.5814 35.3732 24.0657 35.3732C25.4164 35.3732 26.7045 35.0988 27.8807 34.6011C28.5634 34.3123 28.4827 34.2758 28.8369 34.9043L29.1927 35.5363C29.5229 36.1258 29.574 36.0366 28.9892 36.3075L28.9909 36.3067Z" fill="#00151E"/>
<path fill-rule="evenodd" clip-rule="evenodd" d="M31.6207 34.6385C31.4024 34.8202 31.1776 34.9952 30.947 35.1609C30.4034 35.5524 30.4717 35.5541 30.1662 35.0122L29.6794 34.1484C29.4529 33.7441 29.4002 33.8069 29.7363 33.5708C29.9693 33.4069 30.195 33.2327 30.4133 33.0501C30.7345 32.7809 30.6892 32.7893 30.9568 33.09L31.6108 33.8248C32.0671 34.3378 32.1115 34.2299 31.6207 34.6393V34.6385Z" fill="#2AADE1"/>
<path fill-rule="evenodd" clip-rule="evenodd" d="M40.3971 40.315C41.3434 40.315 42.1102 41.1058 42.1102 42.0817C42.1102 43.0577 41.3434 43.8485 40.3971 43.8485C40.2744 43.8485 40.1541 43.8349 40.0388 43.8094C39.1683 44.5951 38.2434 45.3188 37.2698 45.9711C36.55 46.4536 36.6324 46.5037 36.2379 45.8029L35.803 45.0308C35.5048 44.4983 35.4546 44.4915 36.0888 44.0651C37.003 43.451 37.8711 42.7689 38.6848 42.0248C38.7136 41.0752 39.4689 40.3141 40.3971 40.3141V40.315Z" fill="#2AADE1"/>
<path fill-rule="evenodd" clip-rule="evenodd" d="M18.8754 0.552324C18.8935 0.548078 18.9116 0.543831 18.9297 0.540433C20.0721 0.286464 21.2441 0.114038 22.4399 0.0316464C23.0107 -0.00742565 23.0321 -0.0371544 23.0263 0.433409L23.0568 1.59453C23.0716 2.24432 23.1186 2.24517 22.3699 2.30462C21.3363 2.38616 20.3216 2.5416 19.3325 2.76499C18.7913 2.88731 18.8523 2.77094 18.7395 2.31142L18.4726 1.2208C18.3359 0.693324 18.3458 0.672089 18.8737 0.553174L18.8754 0.552324Z" fill="#2AADE1"/>
<path fill-rule="evenodd" clip-rule="evenodd" d="M19.7253 4.55127C20.6897 4.33383 21.6797 4.18773 22.6903 4.11723C23.1737 4.08411 23.1235 4.13422 23.1342 4.53683L23.1696 5.87378C23.1696 6.2594 23.2627 6.32565 22.8542 6.35284C21.9778 6.41229 21.118 6.53715 20.2796 6.72062C19.8126 6.82255 19.8595 6.86162 19.7434 6.41399L19.4156 5.0728C19.3357 4.74748 19.2599 4.6566 19.7253 4.55212V4.55127Z" fill="#2AADE1"/>
<path fill-rule="evenodd" clip-rule="evenodd" d="M20.6971 8.65214C21.4096 8.4967 22.1393 8.38883 22.883 8.33362C23.2709 8.30474 23.2248 8.28605 23.2437 8.66063L23.2792 9.98654C23.2932 10.4979 23.3072 10.4376 22.9357 10.4749C22.3501 10.5335 21.7728 10.6083 21.2078 10.7281C20.7894 10.8164 20.8396 10.8453 20.7293 10.4452L20.4155 9.16093C20.3183 8.76681 20.2524 8.74812 20.6963 8.65129L20.6971 8.65214Z" fill="#2AADE1"/>
<path fill-rule="evenodd" clip-rule="evenodd" d="M21.7152 12.8227C22.136 12.7369 22.5643 12.6732 22.9992 12.6332C23.3772 12.5993 23.3484 12.6044 23.3574 12.9348L23.3937 14.2998C23.4019 14.6174 23.4324 14.6183 23.0807 14.6539C22.7611 14.6862 22.4457 14.7338 22.1352 14.7966C21.7959 14.8646 21.8255 14.9028 21.7415 14.5792L21.445 13.3663C21.3272 12.8838 21.3198 12.9067 21.6567 12.8354C21.6756 12.8312 21.6954 12.8278 21.716 12.8235L21.7152 12.8227Z" fill="#2AADE1"/>
<path fill-rule="evenodd" clip-rule="evenodd" d="M25.1051 12.6316C27.5504 12.8473 29.7865 13.8173 31.5935 15.3148C32.147 15.7735 31.9806 15.8737 31.6792 16.1718L31.0862 16.7766C30.7864 17.0815 30.7427 17.1894 30.2568 16.7978C28.8015 15.6265 27.0258 14.8578 25.0887 14.6565C24.4907 14.5945 24.5492 14.5053 24.5574 14.0347L24.5731 13.1641C24.5805 12.7377 24.5047 12.578 25.1043 12.6316H25.1051Z" fill="#00151E"/>
<path fill-rule="evenodd" clip-rule="evenodd" d="M25.1718 8.32769C28.7825 8.57911 32.0679 10.0511 34.645 12.3462C35.1095 12.7598 34.9176 12.8745 34.6837 13.1106L33.9581 13.8504C33.7291 14.0832 33.6089 14.2386 33.1196 13.8165C30.9626 11.9555 28.2587 10.7468 25.2929 10.4835C24.5994 10.4223 24.6258 10.3535 24.6348 9.83536L24.6529 8.85177C24.6529 8.5222 24.5541 8.28437 25.1726 8.32684L25.1718 8.32769Z" fill="#00151E"/>
<path fill-rule="evenodd" clip-rule="evenodd" d="M25.1578 4.09941C25.185 4.10111 25.213 4.10281 25.2402 4.10366C29.9405 4.37971 34.2118 6.30783 37.5185 9.33167C38.0102 9.78185 37.8628 9.87104 37.5902 10.1488L36.8078 10.9464C36.5665 11.1952 36.4734 11.366 36.0278 10.9617C33.09 8.29457 29.3063 6.59408 25.1455 6.34266C25.1216 6.34096 25.0969 6.33926 25.073 6.33841C24.7205 6.32652 24.7007 6.24838 24.7065 5.93155L24.7337 4.43407C24.7526 4.20219 24.7493 4.06798 25.1578 4.09941Z" fill="#00151E"/>
<path fill-rule="evenodd" clip-rule="evenodd" d="M25.1372 0.00108496C31.0812 0.266945 36.4693 2.74038 40.5519 6.64504C40.8253 6.90665 40.6722 7.00858 40.561 7.12155L39.4153 8.28947C39.3206 8.38884 39.2119 8.45425 39.0431 8.28437C39.0118 8.25209 38.978 8.22236 38.945 8.19179C35.2808 4.7373 30.4825 2.54077 25.1924 2.26642C24.7403 2.24348 24.7749 2.16534 24.7806 1.84427L24.8086 0.334897C24.8119 0.168415 24.7716 -0.0150535 25.1372 0.00108496Z" fill="#00151E"/>
<path d="M24.0666 31.139C27.3607 31.139 30.0311 28.3849 30.0311 24.9877C30.0311 21.5904 27.3607 18.8364 24.0666 18.8364C20.7724 18.8364 18.102 21.5904 18.102 24.9877C18.102 28.3849 20.7724 31.139 24.0666 31.139Z" fill="#00151E"/>
<path d="M45.6616 22.5278H44.6716C44.5604 22.5278 44.4698 22.4981 44.399 22.4412C44.3274 22.3843 44.2755 22.3138 44.2433 22.2288L43.7294 20.7806H40.8789L40.365 22.2288C40.3394 22.3044 40.29 22.3724 40.2159 22.4353C40.1409 22.4973 40.0495 22.5287 39.9416 22.5287H38.9467L41.6498 15.4312H42.9585L45.6616 22.5287V22.5278ZM41.2067 19.8531H43.4008L42.5632 17.4926C42.5253 17.3882 42.4841 17.2633 42.438 17.1214C42.3919 16.9787 42.3457 16.825 42.3013 16.6585C42.2568 16.825 42.214 16.9804 42.1711 17.1248C42.1283 17.2684 42.0855 17.3949 42.0443 17.5028L41.2067 19.8539V19.8531Z" fill="#00151E"/>
<path d="M50.2425 16.7265C50.2079 16.7987 50.1675 16.8496 50.1222 16.8785C50.0761 16.9083 50.0209 16.9227 49.9575 16.9227C49.8941 16.9227 49.8224 16.8964 49.7434 16.8454C49.6643 16.7944 49.5704 16.7392 49.4625 16.6772C49.3546 16.6152 49.2294 16.5575 49.0853 16.5073C48.9412 16.4564 48.7699 16.4317 48.573 16.4317C48.3951 16.4317 48.2411 16.453 48.1102 16.4971C47.9784 16.5413 47.8672 16.6033 47.7766 16.6823C47.686 16.7605 47.6176 16.8539 47.5732 16.9635C47.5287 17.073 47.5065 17.1945 47.5065 17.3253C47.5065 17.4909 47.5526 17.6294 47.6432 17.7407C47.7338 17.8519 47.8524 17.9471 48.0014 18.0252C48.1505 18.1033 48.3202 18.1738 48.5104 18.2359C48.7007 18.2979 48.8959 18.365 49.0944 18.4355C49.2929 18.5043 49.4864 18.5858 49.6767 18.6792C49.8669 18.7727 50.0366 18.8907 50.1857 19.0326C50.3347 19.1753 50.455 19.3503 50.5456 19.5541C50.6362 19.7605 50.6806 20.0102 50.6806 20.305C50.6806 20.626 50.6279 20.925 50.5217 21.2045C50.4154 21.4839 50.2598 21.7277 50.0555 21.9358C49.8513 22.1439 49.6001 22.307 49.3052 22.4268C49.0104 22.5465 48.6719 22.6051 48.2914 22.6051C48.0723 22.6051 47.8565 22.5822 47.644 22.538C47.4315 22.4939 47.2281 22.4319 47.0329 22.3495C46.8377 22.2679 46.6557 22.1694 46.4852 22.0547C46.3155 21.9401 46.1631 21.8126 46.0297 21.6716L46.4012 21.0389C46.4358 20.993 46.4786 20.9556 46.528 20.9242C46.5774 20.8928 46.631 20.8766 46.6911 20.8766C46.7701 20.8766 46.8558 20.9106 46.9481 20.9777C47.0403 21.0448 47.1498 21.1187 47.275 21.2002C47.4002 21.2818 47.5476 21.3574 47.7173 21.4245C47.887 21.4916 48.0904 21.5247 48.3284 21.5247C48.6933 21.5247 48.9758 21.4347 49.1759 21.2563C49.376 21.0779 49.4757 20.8231 49.4757 20.4893C49.4757 20.3024 49.4312 20.1504 49.3406 20.0332C49.25 19.9151 49.1298 19.8157 48.9807 19.735C48.8316 19.6552 48.662 19.5881 48.4717 19.532C48.2815 19.476 48.0879 19.4157 47.8911 19.3503C47.6942 19.2849 47.5007 19.2067 47.3104 19.115C47.1202 19.0232 46.9505 18.9043 46.8014 18.7565C46.6524 18.6096 46.533 18.4244 46.4432 18.2036C46.3526 17.9827 46.3065 17.7109 46.3065 17.3873C46.3065 17.1291 46.3575 16.8768 46.4572 16.6313C46.5568 16.3859 46.7034 16.1684 46.8953 15.9782C47.0872 15.7888 47.322 15.6359 47.6012 15.522C47.8804 15.4074 48.1991 15.3505 48.5574 15.3505C48.9634 15.3505 49.3382 15.4159 49.6808 15.5484C50.0234 15.6792 50.315 15.8643 50.5563 16.1013L50.2425 16.7248V16.7265Z" fill="#00151E"/>
<path d="M56.6938 15.421V16.5107H54.6241V22.5236H53.3434V16.5107H51.2638V15.421H56.6938Z" fill="#00151E"/>
<path d="M63.0414 22.5278H62.0514C61.9403 22.5278 61.8497 22.4981 61.7788 22.4412C61.7072 22.3843 61.6553 22.3138 61.6232 22.2288L61.1092 20.7806H58.2587L57.7448 22.2288C57.7193 22.3044 57.6698 22.3724 57.5957 22.4353C57.5208 22.4973 57.4293 22.5287 57.3215 22.5287H56.3265L59.0296 15.4312H60.3383L63.0414 22.5287V22.5278ZM58.5865 19.8531H60.7806L59.943 17.4926C59.9051 17.3882 59.8639 17.2633 59.8178 17.1214C59.7717 16.9787 59.7256 16.825 59.6811 16.6585C59.6366 16.825 59.5938 16.9804 59.551 17.1248C59.5081 17.2684 59.4653 17.3949 59.4241 17.5028L58.5865 19.8539V19.8531Z" fill="#00151E"/>
<path d="M64.6054 15.4312C64.6623 15.4312 64.71 15.4329 64.7479 15.4379C64.7858 15.443 64.8212 15.4524 64.8509 15.4677C64.8814 15.4821 64.9094 15.5034 64.9382 15.5314C64.967 15.5594 64.9983 15.5968 65.0337 15.6427L68.6461 20.3891C68.6337 20.2744 68.6255 20.1614 68.6205 20.0519C68.6156 19.9423 68.6123 19.8404 68.6123 19.7461V15.432H69.7398V22.5295H69.0785C68.9772 22.5295 68.8932 22.5134 68.8264 22.4803C68.7597 22.448 68.6947 22.3885 68.6312 22.3036L65.0329 17.5767C65.0428 17.6812 65.0502 17.7848 65.0551 17.8876C65.0601 17.9904 65.0617 18.0855 65.0617 18.1704V22.5287H63.9342V15.4312H64.6054Z" fill="#00151E"/>
<path d="M77.3631 22.5278H76.3732C76.262 22.5278 76.1714 22.4981 76.1005 22.4412C76.0289 22.3843 75.977 22.3138 75.9449 22.2288L75.431 20.7806H72.5804L72.0665 22.2288C72.041 22.3044 71.9916 22.3724 71.9174 22.4353C71.8425 22.4973 71.7511 22.5287 71.6432 22.5287H70.6483L73.3513 15.4312H74.6601L77.3631 22.5287V22.5278ZM72.9082 19.8531H75.1023L74.2647 17.4926C74.2268 17.3882 74.1857 17.2633 74.1395 17.1214C74.0934 16.9787 74.0473 16.825 74.0028 16.6585C73.9583 16.825 73.9155 16.9804 73.8727 17.1248C73.8299 17.2684 73.787 17.3949 73.7459 17.5028L72.9082 19.8539V19.8531Z" fill="#00151E"/>
<path d="M81.2901 22.5278H80.0052V15.4312H81.2901V22.5278Z" fill="#00151E"/>
<path d="M87.8699 15.421V16.5107H85.8002V22.5236H84.5195V16.5107H82.4399V15.421H87.8699Z" fill="#00151E"/>
<path d="M42.0641 33.4816C42.3112 33.4816 42.5335 33.4391 42.7287 33.3542C42.9239 33.2693 43.0886 33.1495 43.2237 32.9958C43.3588 32.842 43.4617 32.6552 43.5334 32.4377C43.605 32.2186 43.6396 31.9731 43.6396 31.7013V27.4543H44.9195V31.7047C44.9195 32.1268 44.8545 32.5159 44.7227 32.8743C44.5909 33.2327 44.4007 33.5419 44.1527 33.8018C43.9057 34.0617 43.605 34.2648 43.2534 34.4108C42.9009 34.5561 42.5047 34.63 42.0632 34.63C41.6226 34.63 41.2256 34.5561 40.8731 34.4108C40.5206 34.2656 40.2225 34.0626 39.977 33.8018C39.7308 33.5419 39.5422 33.2327 39.4104 32.8743C39.2786 32.5159 39.2119 32.1268 39.2119 31.7047V27.4543H40.4918V31.697C40.4918 31.9688 40.528 32.2143 40.5997 32.4335C40.6713 32.6509 40.7727 32.8395 40.9061 32.9949C41.0395 33.1503 41.2042 33.2701 41.3994 33.3551C41.5946 33.44 41.8153 33.4825 42.0624 33.4825L42.0641 33.4816Z" fill="#00151E"/>
<path d="M46.9868 27.4543C47.0436 27.4543 47.0914 27.456 47.1293 27.4611C47.1672 27.4662 47.2026 27.4755 47.2322 27.4908C47.2627 27.5053 47.2907 27.5265 47.3195 27.5545C47.3484 27.5826 47.3797 27.6199 47.4151 27.6658L51.0274 32.4122C51.0151 32.2976 51.0068 32.1846 51.0019 32.075C50.9969 31.9654 50.9937 31.8635 50.9937 31.7692V27.4552H52.1212V34.5527H51.4598C51.3585 34.5527 51.2745 34.5366 51.2078 34.5034C51.1411 34.4712 51.076 34.4117 51.0126 34.3268L47.4142 29.5999C47.4241 29.7044 47.4315 29.808 47.4365 29.9108C47.4414 30.0135 47.4431 30.1087 47.4431 30.1936V34.5518H46.3156V27.4543H46.9868Z" fill="#00151E"/>
<path d="M55.0458 34.551H53.7601V27.4543H55.0458V34.551Z" fill="#00151E"/>
<path d="M56.0086 27.4543H57.0414C57.1526 27.4543 57.2432 27.4823 57.3123 27.5376C57.3824 27.5928 57.4342 27.665 57.4697 27.7533L59.088 32.0827C59.1424 32.2237 59.1943 32.3774 59.2437 32.5456C59.2931 32.7138 59.3392 32.8921 59.3829 33.079C59.4562 32.7027 59.546 32.3706 59.6539 32.0827L61.2673 27.7533C61.2961 27.6777 61.3464 27.6097 61.4197 27.5469C61.493 27.4849 61.5828 27.4535 61.6907 27.4535H62.7235L59.9438 34.551H58.7874L56.0078 27.4535L56.0086 27.4543Z" fill="#00151E"/>
<path d="M67.8744 27.4543V28.5042H64.8237V30.468H67.227V31.4881H64.8237V33.491H67.8744V34.551H63.5339V27.4543H67.8744Z" fill="#00151E"/>
<path d="M70.3987 31.7735V34.5467H69.1188V27.4441H71.2173C71.6868 27.4441 72.0895 27.4951 72.4247 27.5945C72.7591 27.6938 73.0342 27.8331 73.2484 28.0132C73.4625 28.195 73.6198 28.409 73.7195 28.6596C73.8191 28.9119 73.8685 29.1862 73.8685 29.4878C73.8685 29.7281 73.8356 29.9541 73.7672 30.1664C73.6989 30.3788 73.6009 30.5724 73.4724 30.7457C73.3439 30.9207 73.1849 31.0727 72.9963 31.2035C72.8077 31.3343 72.5919 31.4388 72.3506 31.5178C72.512 31.6129 72.6521 31.7488 72.7698 31.9255L74.4928 34.5467H73.3414C73.2302 34.5467 73.1372 34.5238 73.0589 34.4779C72.9815 34.4321 72.9148 34.3667 72.8604 34.2817L71.4134 32.0096C71.3598 31.9247 71.3005 31.8644 71.2355 31.8278C71.1704 31.7922 71.074 31.7735 70.9464 31.7735H70.3987ZM70.3987 30.8213H71.1984C71.4397 30.8213 71.6506 30.7899 71.8301 30.7279C72.0096 30.6659 72.1571 30.5792 72.2724 30.4697C72.3885 30.3601 72.4742 30.231 72.531 30.0806C72.5878 29.9303 72.6166 29.7647 72.6166 29.5846C72.6166 29.2244 72.5022 28.9484 72.2724 28.7547C72.0426 28.5619 71.6901 28.4651 71.2173 28.4651H70.3987V30.8213Z" fill="#00151E"/>
<path d="M79.0903 28.7496C79.0557 28.8218 79.0153 28.8728 78.97 28.9017C78.9239 28.9314 78.8687 28.9459 78.8053 28.9459C78.7419 28.9459 78.6702 28.9195 78.5912 28.8686C78.5121 28.8176 78.4182 28.7624 78.3103 28.7004C78.2024 28.6384 78.0772 28.5806 77.9331 28.5305C77.789 28.4795 77.6177 28.4549 77.4208 28.4549C77.2429 28.4549 77.0889 28.4761 76.9579 28.5203C76.8262 28.5645 76.715 28.6265 76.6244 28.7055C76.5338 28.7836 76.4654 28.8771 76.4209 28.9866C76.3765 29.0962 76.3542 29.2177 76.3542 29.3485C76.3542 29.5141 76.4004 29.6525 76.4909 29.7638C76.5815 29.8751 76.7001 29.9702 76.8492 30.0484C76.9983 30.1265 77.168 30.197 77.3582 30.259C77.5485 30.321 77.7437 30.3881 77.9421 30.4586C78.1406 30.5274 78.3342 30.609 78.5244 30.7024C78.7147 30.7958 78.8844 30.9139 79.0334 31.0557C79.1825 31.1984 79.3028 31.3734 79.3933 31.5773C79.4839 31.7837 79.5284 32.0334 79.5284 32.3281C79.5284 32.6492 79.4757 32.9482 79.3695 33.2276C79.2632 33.5071 79.1076 33.7509 78.9033 33.959C78.699 34.1671 78.4478 34.3302 78.153 34.4499C77.8581 34.5697 77.5196 34.6283 77.1391 34.6283C76.92 34.6283 76.7043 34.6054 76.4918 34.5612C76.2793 34.517 76.0759 34.455 75.8807 34.3726C75.6855 34.2911 75.5034 34.1926 75.333 34.0779C75.1633 33.9632 75.0109 33.8358 74.8775 33.6948L75.249 33.062C75.2835 33.0161 75.3264 32.9788 75.3758 32.9473C75.4252 32.9159 75.4787 32.8998 75.5389 32.8998C75.6179 32.8998 75.7036 32.9338 75.7958 33.0009C75.8881 33.068 75.9976 33.1419 76.1228 33.2234C76.248 33.3049 76.3954 33.3805 76.5651 33.4476C76.7347 33.5147 76.9382 33.5479 77.1762 33.5479C77.5411 33.5479 77.8236 33.4578 78.0237 33.2795C78.2238 33.1011 78.3235 32.8463 78.3235 32.5125C78.3235 32.3256 78.279 32.1735 78.1884 32.0563C78.0978 31.9383 77.9776 31.8389 77.8285 31.7582C77.6794 31.6784 77.5098 31.6113 77.3195 31.5552C77.1292 31.4991 76.9357 31.4388 76.7389 31.3734C76.542 31.308 76.3485 31.2299 76.1582 31.1381C75.968 31.0464 75.7983 30.9275 75.6492 30.7797C75.5002 30.6327 75.3807 30.4476 75.291 30.2267C75.2004 30.0059 75.1542 29.7341 75.1542 29.4105C75.1542 29.1523 75.2053 28.9 75.305 28.6545C75.4046 28.409 75.5512 28.1916 75.7431 28.0013C75.935 27.8119 76.1697 27.659 76.4489 27.5452C76.7281 27.4305 77.0469 27.3736 77.4052 27.3736C77.8112 27.3736 78.1859 27.439 78.5286 27.5715C78.8712 27.7023 79.1627 27.8875 79.4041 28.1245L79.0903 28.7479V28.7496Z" fill="#00151E"/>
<path d="M82.042 34.551H80.7572V27.4543H82.042V34.551Z" fill="#00151E"/>
<path d="M88.5305 27.4441V28.5339H86.4607V34.5467H85.18V28.5339H83.1004V27.4441H88.5305Z" fill="#00151E"/>
<path d="M92.4962 31.793V34.5518H91.2163V31.793L88.7084 27.4543H89.8367C89.9479 27.4543 90.0369 27.4823 90.1019 27.5376C90.167 27.5928 90.2205 27.6633 90.265 27.7482L91.5259 30.1189C91.5992 30.2599 91.6627 30.3924 91.7162 30.5181C91.7697 30.6438 91.8191 30.7686 91.8636 30.8893C91.9048 30.7652 91.9526 30.6387 92.0045 30.513C92.0572 30.3873 92.1189 30.2565 92.1914 30.1189L93.4433 27.7482C93.4779 27.676 93.5306 27.6089 93.6006 27.5469C93.6706 27.4849 93.7596 27.4535 93.8675 27.4535H94.9999L92.497 31.7922L92.4962 31.793Z" fill="#00151E"/>
</g>
<defs>
<clipPath id="clip0_13044_5127">
<rect width="95" height="50" fill="white"/>
</clipPath>
</defs>
</svg>
